<!--?xml version="1.0" encoding="us-ascii" standalone="no"?--><svg xmlns="http://www.w3.org/2000/svg" xmlns:xlink="http://www.w3.org/1999/xlink" contentstyletype="text/css" height="365px" preserveAspectRatio="none" style="width:523px;height:365px;background:#FFFFFF;" version="1.1" viewBox="0 0 523 365" width="523px" zoomAndPan="magnify"><defs></defs><g><!--class MusicReducer--><g id="elem_MusicReducer"><rect codeline="1" fill="#F1F1F1" height="96.8906" id="MusicReducer" rx="2.5" ry="2.5" style="stroke:#181818;stroke-width:0.5;" width="135" x="7" y="261.67"></rect><ellipse cx="22" cy="277.67" fill="#ADD1B2" rx="11" ry="11" style="stroke:#181818;stroke-width:1.0;"></ellipse><path d="M24.9688,283.3106 Q24.3906,283.6075 23.75,283.7481 Q23.1094,283.9044 22.4063,283.9044 Q19.9063,283.9044 18.5781,282.2638 Q17.2656,280.6075 17.2656,277.4825 Q17.2656,274.3575 18.5781,272.7013 Q19.9063,271.045 22.4063,271.045 Q23.1094,271.045 23.75,271.2013 Q24.4063,271.3575 24.9688,271.6544 L24.9688,274.3731 Q24.3438,273.795 23.75,273.5294 Q23.1563,273.2481 22.5313,273.2481 Q21.1875,273.2481 20.5,274.3263 Q19.8125,275.3888 19.8125,277.4825 Q19.8125,279.5763 20.5,280.6544 Q21.1875,281.7169 22.5313,281.7169 Q23.1563,281.7169 23.75,281.4513 Q24.3438,281.17 24.9688,280.5919 L24.9688,283.3106 Z " fill="#000000"></path><text fill="#000000" font-family="sans-serif" font-size="14" lengthAdjust="spacing" textLength="103" x="36" y="282.5167">Music Reducer</text><line style="stroke:#181818;stroke-width:0.5;" x1="8" x2="141" y1="293.67" y2="293.67"></line><line style="stroke:#181818;stroke-width:0.5;" x1="8" x2="141" y1="301.67" y2="301.67"></line><ellipse cx="18" cy="315.3184" fill="#84BE84" rx="3" ry="3" style="stroke:#038048;stroke-width:1.0;"></ellipse><text fill="#000000" font-family="sans-serif" font-size="14" lengthAdjust="spacing" textLength="37" x="27" y="318.6651">play()</text><ellipse cx="18" cy="331.6153" fill="#84BE84" rx="3" ry="3" style="stroke:#038048;stroke-width:1.0;"></ellipse><text fill="#000000" font-family="sans-serif" font-size="14" lengthAdjust="spacing" textLength="53" x="27" y="334.962">pause()</text><ellipse cx="18" cy="347.9122" fill="#84BE84" rx="3" ry="3" style="stroke:#038048;stroke-width:1.0;"></ellipse><text fill="#000000" font-family="sans-serif" font-size="14" lengthAdjust="spacing" textLength="92" x="27" y="351.2589">selectMusic()</text></g><!--class TelephoneDevice--><g id="elem_TelephoneDevice"><rect codeline="7" fill="#F1F1F1" height="96.8906" id="TelephoneDevice" rx="2.5" ry="2.5" style="stroke:#181818;stroke-width:0.5;" width="158" x="176.5" y="261.67"></rect><ellipse cx="191.5" cy="277.67" fill="#ADD1B2" rx="11" ry="11" style="stroke:#181818;stroke-width:1.0;"></ellipse><path d="M194.4688,283.3106 Q193.8906,283.6075 193.25,283.7481 Q192.6094,283.9044 191.9063,283.9044 Q189.4063,283.9044 188.0781,282.2638 Q186.7656,280.6075 186.7656,277.4825 Q186.7656,274.3575 188.0781,272.7013 Q189.4063,271.045 191.9063,271.045 Q192.6094,271.045 193.25,271.2013 Q193.9063,271.3575 194.4688,271.6544 L194.4688,274.3731 Q193.8438,273.795 193.25,273.5294 Q192.6563,273.2481 192.0313,273.2481 Q190.6875,273.2481 190,274.3263 Q189.3125,275.3888 189.3125,277.4825 Q189.3125,279.5763 190,280.6544 Q190.6875,281.7169 192.0313,281.7169 Q192.6563,281.7169 193.25,281.4513 Q193.8438,281.17 194.4688,280.5919 L194.4688,283.3106 Z " fill="#000000"></path><text fill="#000000" font-family="sans-serif" font-size="14" lengthAdjust="spacing" textLength="126" x="205.5" y="282.5167">Telephone Device</text><line style="stroke:#181818;stroke-width:0.5;" x1="177.5" x2="333.5" y1="293.67" y2="293.67"></line><line style="stroke:#181818;stroke-width:0.5;" x1="177.5" x2="333.5" y1="301.67" y2="301.67"></line><ellipse cx="187.5" cy="315.3184" fill="#84BE84" rx="3" ry="3" style="stroke:#038048;stroke-width:1.0;"></ellipse><text fill="#000000" font-family="sans-serif" font-size="14" lengthAdjust="spacing" textLength="32" x="196.5" y="318.6651">call()</text><ellipse cx="187.5" cy="331.6153" fill="#84BE84" rx="3" ry="3" style="stroke:#038048;stroke-width:1.0;"></ellipse><text fill="#000000" font-family="sans-serif" font-size="14" lengthAdjust="spacing" textLength="60" x="196.5" y="334.962">answer()</text><ellipse cx="187.5" cy="347.9122" fill="#84BE84" rx="3" ry="3" style="stroke:#038048;stroke-width:1.0;"></ellipse><text fill="#000000" font-family="sans-serif" font-size="14" lengthAdjust="spacing" textLength="93" x="196.5" y="351.2589">startMailVoz()</text></g><!--class InternetBrowser--><g id="elem_InternetBrowser"><rect codeline="13" fill="#F1F1F1" height="96.8906" id="InternetBrowser" rx="2.5" ry="2.5" style="stroke:#181818;stroke-width:0.5;" width="147" x="369" y="261.67"></rect><ellipse cx="384" cy="277.67" fill="#ADD1B2" rx="11" ry="11" style="stroke:#181818;stroke-width:1.0;"></ellipse><path d="M386.9688,283.3106 Q386.3906,283.6075 385.75,283.7481 Q385.1094,283.9044 384.4063,283.9044 Q381.9063,283.9044 380.5781,282.2638 Q379.2656,280.6075 379.2656,277.4825 Q379.2656,274.3575 380.5781,272.7013 Q381.9063,271.045 384.4063,271.045 Q385.1094,271.045 385.75,271.2013 Q386.4063,271.3575 386.9688,271.6544 L386.9688,274.3731 Q386.3438,273.795 385.75,273.5294 Q385.1563,273.2481 384.5313,273.2481 Q383.1875,273.2481 382.5,274.3263 Q381.8125,275.3888 381.8125,277.4825 Q381.8125,279.5763 382.5,280.6544 Q383.1875,281.7169 384.5313,281.7169 Q385.1563,281.7169 385.75,281.4513 Q386.3438,281.17 386.9688,280.5919 L386.9688,283.3106 Z " fill="#000000"></path><text fill="#000000" font-family="sans-serif" font-size="14" lengthAdjust="spacing" textLength="115" x="398" y="282.5167">Internet Browser</text><line style="stroke:#181818;stroke-width:0.5;" x1="370" x2="515" y1="293.67" y2="293.67"></line><line style="stroke:#181818;stroke-width:0.5;" x1="370" x2="515" y1="301.67" y2="301.67"></line><ellipse cx="380" cy="315.3184" fill="#84BE84" rx="3" ry="3" style="stroke:#038048;stroke-width:1.0;"></ellipse><text fill="#000000" font-family="sans-serif" font-size="14" lengthAdjust="spacing" textLength="92" x="389" y="318.6651">displayPage()</text><ellipse cx="380" cy="331.6153" fill="#84BE84" rx="3" ry="3" style="stroke:#038048;stroke-width:1.0;"></ellipse><text fill="#000000" font-family="sans-serif" font-size="14" lengthAdjust="spacing" textLength="92" x="389" y="334.962">addNewTab()</text><ellipse cx="380" cy="347.9122" fill="#84BE84" rx="3" ry="3" style="stroke:#038048;stroke-width:1.0;"></ellipse><text fill="#000000" font-family="sans-serif" font-size="14" lengthAdjust="spacing" textLength="94" x="389" y="351.2589">refreshPage()</text></g><!--class iPhone--><g id="elem_iPhone"><rect codeline="19" fill="#F1F1F1" height="194.6719" id="iPhone" rx="2.5" ry="2.5" style="stroke:#181818;stroke-width:0.5;" width="120" x="195.5" y="7"></rect><ellipse cx="228.5" cy="23" fill="#ADD1B2" rx="11" ry="11" style="stroke:#181818;stroke-width:1.0;"></ellipse><path d="M231.4688,28.6406 Q230.8906,28.9375 230.25,29.0781 Q229.6094,29.2344 228.9063,29.2344 Q226.4063,29.2344 225.0781,27.5938 Q223.7656,25.9375 223.7656,22.8125 Q223.7656,19.6875 225.0781,18.0313 Q226.4063,16.375 228.9063,16.375 Q229.6094,16.375 230.25,16.5313 Q230.9063,16.6875 231.4688,16.9844 L231.4688,19.7031 Q230.8438,19.125 230.25,18.8594 Q229.6563,18.5781 229.0313,18.5781 Q227.6875,18.5781 227,19.6563 Q226.3125,20.7188 226.3125,22.8125 Q226.3125,24.9063 227,25.9844 Q227.6875,27.0469 229.0313,27.0469 Q229.6563,27.0469 230.25,26.7813 Q230.8438,26.5 231.4688,25.9219 L231.4688,28.6406 Z " fill="#000000"></path><text fill="#000000" font-family="sans-serif" font-size="14" lengthAdjust="spacing" textLength="48" x="246.5" y="27.8467">iPhone</text><line style="stroke:#181818;stroke-width:0.5;" x1="196.5" x2="314.5" y1="39" y2="39"></line><line style="stroke:#181818;stroke-width:0.5;" x1="196.5" x2="314.5" y1="47" y2="47"></line><ellipse cx="206.5" cy="60.6484" fill="#84BE84" rx="3" ry="3" style="stroke:#038048;stroke-width:1.0;"></ellipse><text fill="#000000" font-family="sans-serif" font-size="14" lengthAdjust="spacing" textLength="37" x="215.5" y="63.9951">play()</text><ellipse cx="206.5" cy="76.9453" fill="#84BE84" rx="3" ry="3" style="stroke:#038048;stroke-width:1.0;"></ellipse><text fill="#000000" font-family="sans-serif" font-size="14" lengthAdjust="spacing" textLength="53" x="215.5" y="80.292">pause()</text><ellipse cx="206.5" cy="93.2422" fill="#84BE84" rx="3" ry="3" style="stroke:#038048;stroke-width:1.0;"></ellipse><text fill="#000000" font-family="sans-serif" font-size="14" lengthAdjust="spacing" textLength="92" x="215.5" y="96.5889">selectMusic()</text><ellipse cx="206.5" cy="109.5391" fill="#84BE84" rx="3" ry="3" style="stroke:#038048;stroke-width:1.0;"></ellipse><text fill="#000000" font-family="sans-serif" font-size="14" lengthAdjust="spacing" textLength="32" x="215.5" y="112.8857">call()</text><ellipse cx="206.5" cy="125.8359" fill="#84BE84" rx="3" ry="3" style="stroke:#038048;stroke-width:1.0;"></ellipse><text fill="#000000" font-family="sans-serif" font-size="14" lengthAdjust="spacing" textLength="60" x="215.5" y="129.1826">answer()</text><ellipse cx="206.5" cy="142.1328" fill="#84BE84" rx="3" ry="3" style="stroke:#038048;stroke-width:1.0;"></ellipse><text fill="#000000" font-family="sans-serif" font-size="14" lengthAdjust="spacing" textLength="93" x="215.5" y="145.4795">startMailVoz()</text><ellipse cx="206.5" cy="158.4297" fill="#84BE84" rx="3" ry="3" style="stroke:#038048;stroke-width:1.0;"></ellipse><text fill="#000000" font-family="sans-serif" font-size="14" lengthAdjust="spacing" textLength="92" x="215.5" y="161.7764">displayPage()</text><ellipse cx="206.5" cy="174.7266" fill="#84BE84" rx="3" ry="3" style="stroke:#038048;stroke-width:1.0;"></ellipse><text fill="#000000" font-family="sans-serif" font-size="14" lengthAdjust="spacing" textLength="92" x="215.5" y="178.0732">addNewTab()</text><ellipse cx="206.5" cy="191.0234" fill="#84BE84" rx="3" ry="3" style="stroke:#038048;stroke-width:1.0;"></ellipse><text fill="#000000" font-family="sans-serif" font-size="14" lengthAdjust="spacing" textLength="94" x="215.5" y="194.3701">refreshPage()</text></g><!--link iPhone to MusicReducer--><g id="link_iPhone_MusicReducer"><path codeline="31" d="M195.23,173.19 C174.42,196.61 151.21,222.75 130.74,245.8 " fill="none" id="iPhone-to-MusicReducer" style="stroke:#181818;stroke-width:1.0;"></path><polygon fill="none" points="136.59,249.88,118.07,260.19,126.12,240.58,136.59,249.88" style="stroke:#181818;stroke-width:1.0;"></polygon></g><!--link iPhone to TelephoneDevice--><g id="link_iPhone_TelephoneDevice"><path codeline="32" d="M255.5,202.15 C255.5,215.15 255.5,228.26 255.5,240.62 " fill="none" id="iPhone-to-TelephoneDevice" style="stroke:#181818;stroke-width:1.0;"></path><polygon fill="none" points="262.5,240.24,255.5,260.24,248.5,240.24,262.5,240.24" style="stroke:#181818;stroke-width:1.0;"></polygon></g><!--link iPhone to InternetBrowser--><g id="link_iPhone_InternetBrowser"><path codeline="33" d="M315.96,171.21 C337.91,195.14 362.65,222.1 384.4,245.8 " fill="none" id="iPhone-to-InternetBrowser" style="stroke:#181818;stroke-width:1.0;"></path><polygon fill="none" points="389.18,240.75,397.55,260.22,378.87,250.22,389.18,240.75" style="stroke:#181818;stroke-width:1.0;"></polygon></g><!--SRC=[dP7F3e8m38VlF4NZIMDu1G_6YmSCCSHx7LMMB8EiG-A_TnT6qS0DRztNvjjldJB838kaPgtWI7cjo2q06G8H0Cy8O0sLmVjorPTOCqdDP4ZvCD-ITnIftfcrl2fAIx2ZcrOKj5_OCp4hD4PiQBaXDwWzEf-WDgVoCNBlhITdoSFMbGrBv04A4tUkkGkUudK8Z7b-e2R3ivmTNHnn8HE_ItJQ1GtglfopXndF-ZEbP8hZrsRqMwF6PD-ZtcHV7m00]--></g></svg>